<svg width="24" height="24" viewBox="0 0 24 24" fill="none" xmlns="http://www.w3.org/2000/svg">
<path d="M19.25 12V18H20.75V12H19.25ZM16 21.25H8V22.75H16V21.25ZM4.75 18V12H3.25V18H4.75ZM8 21.25C6.20507 21.25 4.75 19.7949 4.75 18H3.25C3.25 20.6234 5.37665 22.75 8 22.75V21.25ZM19.25 18C19.25 19.7949 17.7949 21.25 16 21.25V22.75C18.6234 22.75 20.75 20.6234 20.75 18H19.25Z" fill="#F8F8F8"/>
<path d="M20.8953 5.14305L21.602 4.89179V4.89179L20.8953 5.14305ZM21.6533 7.27487L22.36 7.02362V7.02362L21.6533 7.27487ZM2.34673 7.27487L3.0534 7.52613L2.34673 7.27487ZM3.10472 5.14305L3.81138 5.39431V5.3943L3.10472 5.14305ZM16.0834 8.25C16.0834 7.83579 15.7476 7.5 15.3334 7.5C14.9191 7.5 14.5834 7.83579 14.5834 8.25H16.0834ZM21.874 9.27488L21.1467 9.09161L21.1467 9.09161L21.874 9.27488ZM9.41669 8.25C9.41669 7.83579 9.0809 7.5 8.66669 7.5C8.25248 7.5 7.91669 7.83579 7.91669 8.25H9.41669ZM2.12604 9.27488L1.39877 9.45814L2.12604 9.27488ZM7.23128 2.75H16.7688V1.25H7.23128V2.75ZM20.1887 5.3943L20.9467 7.52613L22.36 7.02362L21.602 4.89179L20.1887 5.3943ZM3.0534 7.52613L3.81138 5.39431L2.39806 4.89179L1.64007 7.02362L3.0534 7.52613ZM16.7688 2.75C18.2255 2.75 19.6048 3.75205 20.1887 5.3943L21.602 4.89179C20.836 2.73746 18.9468 1.25 16.7688 1.25V2.75ZM7.23128 1.25C5.05326 1.25 3.16404 2.73746 2.39806 4.89179L3.81138 5.3943C4.39529 3.75205 5.77459 2.75 7.23128 2.75V1.25ZM18.6667 11.25C17.3206 11.25 16.0834 9.99234 16.0834 8.25H14.5834C14.5834 10.6498 16.3309 12.75 18.6667 12.75V11.25ZM21.1467 9.09161C20.8184 10.3947 19.7868 11.25 18.6667 11.25V12.75C20.5967 12.75 22.1369 11.3008 22.6013 9.45814L21.1467 9.09161ZM12 11.25C10.6539 11.25 9.41669 9.99234 9.41669 8.25H7.91669C7.91669 10.6498 9.66426 12.75 12 12.75V11.25ZM14.5834 8.25C14.5834 9.99234 13.3462 11.25 12 11.25V12.75C14.3358 12.75 16.0834 10.6498 16.0834 8.25H14.5834ZM5.33336 11.25C4.2132 11.25 3.18166 10.3947 2.8533 9.09162L1.39877 9.45814C1.86311 11.3008 3.40332 12.75 5.33336 12.75V11.25ZM7.91669 8.25C7.91669 9.99234 6.67949 11.25 5.33336 11.25V12.75C7.66912 12.75 9.41669 10.6498 9.41669 8.25H7.91669ZM1.64007 7.02362C1.39833 7.70352 1.1752 8.57089 1.39877 9.45814L2.8533 9.09162C2.74217 8.65059 2.83624 8.13687 3.0534 7.52613L1.64007 7.02362ZM20.9467 7.52613C21.1638 8.13687 21.2579 8.65059 21.1467 9.09161L22.6013 9.45814C22.8248 8.57089 22.6017 7.70352 22.36 7.02362L20.9467 7.52613Z" fill="#F8F8F8"/>
<path d="M9.37085 16.3481C9.01082 16.1433 8.55292 16.2691 8.3481 16.6292C8.14329 16.9892 8.26912 17.4471 8.62915 17.6519L9.37085 16.3481ZM15.3683 17.6533C15.7292 17.4499 15.8567 16.9925 15.6533 16.6317C15.4499 16.2708 14.9925 16.1433 14.6317 16.3467L15.3683 17.6533ZM8.62915 17.6519C9.8491 18.3459 10.8978 18.7521 12.0028 18.75C13.1065 18.7479 14.1532 18.3384 15.3683 17.6533L14.6317 16.3467C13.4944 16.9879 12.7191 17.2486 11.9999 17.25C11.2821 17.2514 10.507 16.9945 9.37085 16.3481L8.62915 17.6519Z" fill="#F8F8F8"/>
</svg>
