<svg width="12" height="12" viewBox="0 0 12 12" fill="none" xmlns="http://www.w3.org/2000/svg">
<path d="M5.994 0.166666C2.774 0.166666 0.166504 2.78 0.166504 6C0.166504 9.22 2.774 11.8333 5.994 11.8333C9.21984 11.8333 11.8332 9.22 11.8332 6C11.8332 2.78 9.21984 0.166666 5.994 0.166666ZM7.87817 9.14417L5.99984 8.0125L4.1215 9.14417C3.89984 9.27833 3.62567 9.08 3.684 8.82917L4.17984 6.69417L2.529 5.265C2.3365 5.09583 2.4415 4.775 2.69817 4.75167L4.87984 4.565L5.7315 2.5525C5.83067 2.31333 6.169 2.31333 6.26817 2.5525L7.11984 4.55917L9.3015 4.74583C9.55817 4.76917 9.66317 5.09 9.46484 5.25917L7.814 6.68833L8.30984 8.82917C8.36817 9.08 8.09984 9.27833 7.87817 9.14417Z" fill="white"/>
</svg>
