<svg width="12" height="8" viewBox="0 0 12 8" fill="none" xmlns="http://www.w3.org/2000/svg">
<path d="M1.33011 7.24C1.17011 7.24 1.01011 7.19 0.870112 7.08C0.540112 6.83 0.480112 6.36 0.730112 6.03L3.11011 2.94C3.40011 2.57 3.81011 2.33 4.2801 2.27C4.7401 2.21 5.2101 2.34 5.5801 2.63L7.4101 4.07C7.4801 4.13 7.5501 4.13 7.6001 4.12C7.6401 4.12 7.7101 4.1 7.7701 4.02L10.0801 1.04001C10.3301 0.710007 10.8101 0.650007 11.1301 0.910007C11.4601 1.16001 11.5201 1.63001 11.2601 1.96001L8.9501 4.94C8.6601 5.31 8.2501 5.55 7.7801 5.6C7.3101 5.66 6.8501 5.53 6.4801 5.24L4.6501 3.8C4.5801 3.74 4.5001 3.74 4.4601 3.75C4.4201 3.75 4.3501 3.77 4.2901 3.85L1.91011 6.94C1.78011 7.14 1.56011 7.24 1.33011 7.24Z" fill="white"/>
</svg>
